STARTFONT 2.1
COMMENT $XFree86$
COMMENT 
COMMENT  Copyright 1989 by Sun Microsystems, Inc. Mountain View, CA.
COMMENT 
COMMENT  Permission to use, copy, modify, and distribute this software and
COMMENT  its documentation for any purpose and without fee is hereby granted,
COMMENT  provided that the above copyright notices appear in all copies and
COMMENT  that both those copyright notices and this permission notice appear
COMMENT  in supporting documentation, and that the name of Sun Microsystems
COMMENT  not be used in advertising or publicity pertaining to distribution
COMMENT  of the software without specific, written prior permission.  Sun
COMMENT  Microsystems make no representations about the suitability of this
COMMENT  software for any purpose.  It is provided "as is" without express or
COMMENT  implied warranty.
COMMENT 
COMMENT  SUN MICROSYSTEMS DISCLAIM ALL WARRANTIES WITH REGARD TO THIS
COMMENT  SOFTWARE, INCLUDING ALL IMPLIED WARRANTIES OF MERCHANTABILITY AND
COMMENT  FITNESS, IN NO EVENT SHALL SUN MICROSYSTEMS BE LIABLE FOR ANY
COMMENT  SPECIAL, INDIRECT OR CONSEQUENTIAL DAMAGES OR ANY DAMAGES WHATSOEVER
COMMENT  RESULTING FROM LOSS OF USE, DATA OR PROFITS, WHETHER IN AN ACTION OF
COMMENT  CONTRACT, NEGLIGENCE OR OTHER TORTIOUS ACTION, ARISING OUT OF OR IN
COMMENT  CONNECTION WITH THE USE OR PERFORMANCE OF THIS SOFTWARE.
COMMENT 
COMMENT  ** Open Look Glyph Font, 19-pt **
FONT -Sun-OPEN LOOK glyph-----19-190-75-75-P-154-SunOLglyph-1
SIZE 19 78 78
FONTBOUNDINGBOX 65 65 0 -65
STARTPROPERTIES 18
COMMENT Begin LogicalFontDescription
FONTNAME_REGISTRY ""
FAMILY_NAME "OPEN LOOK glyph"
FOUNDRY "Sun"
WEIGHT_NAME ""
SETWIDTH_NAME ""
SLANT ""
ADD_STYLE_NAME ""
PIXEL_SIZE 19
POINT_SIZE 190
RESOLUTION_X 75
RESOLUTION_Y 75
SPACING "P"
AVERAGE_WIDTH 154
CHARSET_REGISTRY "SunOLglyph"
CHARSET_ENCODING "1"
COMMENT END LogicalFontDescription
FACE_NAME "OLGlyph"
FONT_DESCENT 65
FONT_ASCENT 0
ENDPROPERTIES
CHARS 234
STARTCHAR VerticalScrollbarEle
ENCODING 1
SWIDTH 96 0
DWIDTH 21 0
BBX 21 65 0 -65
BITMAP
7ffff0
800018
800018
800018
800018
800018
806018
80f018
81f818
83fc18
87fe18
8fff18
9fff98
9fff98
800018
800018
800018
800018
800018
800018
800018
fffff8
800018
800018
800018
800018
800018
800018
800018
800018
800018
800018
800018
800018
800018
800018
800018
800018
800018
800018
800018
800018
fffff8
800018
800018
800018
800018
800018
800018
800018
9fff98
9fff98
8fff18
87fe18
83fc18
81f818
80f018
806018
800018
800018
800018
800018
800018
fffff8
7ffff0
ENDCHAR
STARTCHAR VerticalScrollbarEle
ENCODING 2
SWIDTH 96 0
DWIDTH 22 0
BBX 21 65 0 -65
BITMAP
7ffff0
fffff8
fffff8
fffff8
fffff8
fffff8
ff9ff8
ff0ff8
fe07f8
fc03f8
f801f8
f000f8
e00078
e00078
fffff8
fffff8
fffff8
fffff8
fffff8
fffff8
fffff8
fffff8
800018
800018
800018
800018
800018
800018
800018
800018
800018
800018
800018
800018
800018
800018
800018
800018
800018
800018
800018
800018
fffff8
800018
800018
800018
800018
800018
800018
800018
9fff98
9fff98
8fff18
87fe18
83fc18
81f818
80f018
806018
800018
800018
800018
800018
800018
fffff8
7ffff0
ENDCHAR
STARTCHAR VerticalScrollbarEle
ENCODING 3
SWIDTH 96 0
DWIDTH 22 0
BBX 21 65 0 -65
BITMAP
7ffff0
800018
800018
800018
800018
800018
806018
80f018
81f818
83fc18
87fe18
8fff18
9fff98
9fff98
800018
800018
800018
800018
800018
800018
800018
fffff8
fffff8
fffff8
fffff8
fffff8
fffff8
fffff8
fffff8
fffff8
fffff8
fffff8
fffff8
fffff8
fffff8
fffff8
fffff8
fffff8
fffff8
fffff8
fffff8
fffff8
fffff8
800018
800018
800018
800018
800018
800018
800018
9fff98
9fff98
8fff18
87fe18
83fc18
81f818
80f018
806018
800018
800018
800018
800018
800018
fffff8
7ffff0
ENDCHAR
STARTCHAR VerticalScrollbarEle
ENCODING 4
SWIDTH 96 0
DWIDTH 21 0
BBX 21 65 0 -65
BITMAP
7ffff0
800018
800018
800018
800018
800018
806018
80f018
81f818
83fc18
87fe18
8fff18
9fff98
9fff98
800018
800018
800018
800018
800018
800018
800018
fffff8
800018
800018
800018
800018
800018
800018
800018
800018
800018
800018
800018
800018
800018
800018
800018
800018
800018
800018
800018
800018
fffff8
fffff8
fffff8
fffff8
fffff8
fffff8
fffff8
fffff8
e00078
e00078
f000f8
f801f8
fc03f8
fe07f8
ff0ff8
ff9ff8
fffff8
fffff8
fffff8
fffff8
fffff8
fffff8
7ffff0
ENDCHAR
STARTCHAR VerticalScrollbarRed
ENCODING 5
SWIDTH 96 0
DWIDTH 21 0
BBX 21 44 0 -44
BITMAP
7ffff0
800018
800018
800018
800018
800018
806018
80f018
81f818
83fc18
87fe18
8fff18
9fff98
9fff98
800018
800018
800018
800018
800018
800018
800018
fffff8
800018
800018
800018
800018
800018
800018
800018
9fff98
9fff98
8fff18
87fe18
83fc18
81f818
80f018
806018
800018
800018
800018
800018
800018
fffff8
7ffff0
ENDCHAR
STARTCHAR VerticalScrollbarRed
ENCODING 6
SWIDTH 96 0
DWIDTH 21 0
BBX 21 44 0 -44
BITMAP
7ffff0
fffff8
fffff8
fffff8
fffff8
fffff8
ff9ff8
ff0ff8
fe07f8
fc03f8
f801f8
f000f8
e00078
e00078
fffff8
fffff8
fffff8
fffff8
fffff8
fffff8
fffff8
fffff8
800018
800018
800018
800018
800018
800018
800018
9fff98
9fff98
8fff18
87fe18
83fc18
81f818
80f018
806018
800018
800018
800018
800018
800018
fffff8
7ffff0
ENDCHAR
STARTCHAR VerticalScrollbarRed
ENCODING 7
SWIDTH 96 0
DWIDTH 21 0
BBX 21 44 0 -44
BITMAP
7ffff0
800018
800018
800018
800018
800018
806018
80f018
81f818
83fc18
87fe18
8fff18
9fff98
9fff98
800018
800018
800018
800018
800018
800018
800018
fffff8
fffff8
fffff8
fffff8
fffff8
fffff8
fffff8
fffff8
e00078
e00078
f000f8
f801f8
fc03f8
fe07f8
ff0ff8
ff9ff8
fffff8
fffff8
fffff8
fffff8
fffff8
fffff8
7ffff0
ENDCHAR
STARTCHAR VerticalScrollbarAnc
ENCODING 8
SWIDTH 96 0
DWIDTH 21 0
BBX 21 9 0 -9
BITMAP
fffff8
800008
800008
800008
800008
800008
800008
800008
fffff8
ENDCHAR
STARTCHAR VerticalScrollbarAnc
ENCODING 9
SWIDTH 96 0
DWIDTH 21 0
BBX 21 9 0 -9
BITMAP
fffff8
fffff8
fffff8
fffff8
fffff8
fffff8
fffff8
fffff8
fffff8
ENDCHAR
STARTCHAR HorizontalScrollbarE
ENCODING 10
SWIDTH 96 0
DWIDTH 65 0
BBX 65 21 0 -21
BITMAP
7fffffffffffffff00
800004000020000180
800004000020000180
800c04000020300180
801c04000020380180
803c040000203c0180
807c040000203e0180
80fc040000203f0180
81fc040000203f8180
83fc040000203fc180
83fc040000203fc180
81fc040000203f8180
80fc040000203f0180
807c040000203e0180
803c040000203c0180
801c04000020380180
800c04000020300180
800004000020000180
800004000020000180
ffffffffffffffff80
7fffffffffffffff00
ENDCHAR
STARTCHAR HorizontalScrollbarE
ENCODING 11
SWIDTH 96 0
DWIDTH 65 0
BBX 65 21 0 -21
BITMAP
7fffffffffffffff00
fffffc000020000180
fffffc000020000180
fff3fc000020300180
ffe3fc000020380180
ffc3fc0000203c0180
ff83fc0000203e0180
ff03fc0000203f0180
fe03fc0000203f8180
fc03fc0000203fc180
fc03fc0000203fc180
fe03fc0000203f8180
ff03fc0000203f0180
ff83fc0000203e0180
ffc3fc0000203c0180
ffe3fc000020380180
fff3fc000020300180
fffffc000020000180
fffffc000020000180
ffffffffffffffff80
7fffffffffffffff00
ENDCHAR
STARTCHAR HorizontalScrollbarE
ENCODING 12
SWIDTH 96 0
DWIDTH 65 0
BBX 65 21 0 -21
BITMAP
7fffffffffffffff00
800003ffffe0000180
800003ffffe0000180
800c03ffffe0300180
801c03ffffe0380180
803c03ffffe03c0180
807c03ffffe03e0180
80fc03ffffe03f0180
81fc03ffffe03f8180
83fc03ffffe03fc180
83fc03ffffe03fc180
81fc03ffffe03f8180
80fc03ffffe03f0180
807c03ffffe03e0180
803c03ffffe03c0180
801c03ffffe0380180
800c03ffffe0300180
800003ffffe0000180
800003ffffe0000180
ffffffffffffffff80
7fffffffffffffff00
ENDCHAR
STARTCHAR HorizontalScrollbarE
ENCODING 13
SWIDTH 96 0
DWIDTH 65 0
BBX 65 21 0 -21
BITMAP
7fffffffffffffff00
80000400003fffff80
80000400003fffff80
800c0400003fcfff80
801c0400003fc7ff80
803c0400003fc3ff80
807c0400003fc1ff80
80fc0400003fc0ff80
81fc0400003fc07f80
83fc0400003fc03f80
83fc0400003fc03f80
81fc0400003fc07f80
80fc0400003fc0ff80
807c0400003fc1ff80
803c0400003fc3ff80
801c0400003fc7ff80
800c0400003fcfff80
80000400003fffff80
80000400003fffff80
ffffffffffffffff80
7fffffffffffffff00
ENDCHAR
STARTCHAR HorizontalScrollbarR
ENCODING 14
SWIDTH 96 0
DWIDTH 44 0
BBX 44 21 0 -21
BITMAP
7fffffffffe0
800004000030
800004000030
800c04060030
801c04070030
803c04078030
807c0407c030
80fc0407e030
81fc0407f030
83fc0407f830
83fc0407f830
81fc0407f030
80fc0407e030
807c0407c030
803c04078030
801c04070030
800c04060030
800004000030
800004000030
fffffffffff0
7fffffffffe0
ENDCHAR
STARTCHAR HorizontalScrollbarR
ENCODING 15
SWIDTH 96 0
DWIDTH 44 0
BBX 44 21 0 -21
BITMAP
7fffffffffe0
fffffc000030
fffffc000030
fff3fc060030
ffe3fc070030
ffc3fc078030
ff83fc07c030
ff03fc07e030
fe03fc07f030
fc03fc07f830
fc03fc07f830
fe03fc07f030
ff03fc07e030
ff83fc07c030
ffc3fc078030
ffe3fc070030
fff3fc060030
fffffc000030
fffffc000030
fffffffffff0
7fffffffffe0
ENDCHAR
STARTCHAR HorizontalScrollbarR
ENCODING 16
SWIDTH 96 0
DWIDTH 44 0
BBX 44 21 0 -21
BITMAP
7fffffffffe0
800007fffff0
800007fffff0
800c07f9fff0
801c07f8fff0
803c07f87ff0
807c07f83ff0
80fc07f81ff0
81fc07f80ff0
83fc07f807f0
83fc07f807f0
81fc07f80ff0
80fc07f81ff0
807c07f83ff0
803c07f87ff0
801c07f8fff0
800c07f9fff0
800007fffff0
800007fffff0
fffffffffff0
7fffffffffe0
ENDCHAR
STARTCHAR HorizontalScrollbarA
ENCODING 17
SWIDTH 96 0
DWIDTH 9 0
BBX 9 21 0 -21
BITMAP
ff80
8080
8080
8080
8080
8080
8080
8080
8080
8080
8080
8080
8080
8080
8080
8080
8080
8080
8080
8080
ff80
ENDCHAR
STARTCHAR HorizontalScrollbarA
ENCODING 18
SWIDTH 96 0
DWIDTH 9 0
BBX 9 21 0 -21
BITMAP
ff80
ff80
ff80
ff80
ff80
ff80
ff80
ff80
ff80
ff80
ff80
ff80
ff80
ff80
ff80
ff80
ff80
ff80
ff80
ff80
ff80
ENDCHAR
STARTCHAR pupinout
ENCODING 19
SWIDTH 96 0
DWIDTH 29 0
BBX 29 14 0 -14
BITMAP
0001c000
00012030
00012048
00013fc8
00012048
00012048
07ff2048
03ff2048
00012048
00013fc8
60013ff8
9001e078
9001e030
6001c000
ENDCHAR
STARTCHAR pupin-in
ENCODING 20
SWIDTH 42 0
DWIDTH 15 0
BBX 15 15 0 -15
BITMAP
00e0
0718
1c04
2404
4802
4802
8802
8c06
8404
c71c
43f8
60f8
7870
ffe0
c000
ENDCHAR
STARTCHAR defpupinout
ENCODING 21
SWIDTH 96 0
DWIDTH 29 0
BBX 29 17 0 -17
BITMAP
0001c000
00012030
00012048
00013fc8
00012048
00012048
07ff2048
03ff2048
00012048
3c013fc8
42013ff8
9901e078
a501e030
a501c000
99000000
42000000
3c000000
ENDCHAR
STARTCHAR C22
ENCODING 22
SWIDTH 96 0
DWIDTH 22 0
BBX 22 21 0 -21
BITMAP
3fffe0
400010
800008
80000c
80000c
87ff0c
84010c
82020c
82020c
81040c
81040c
80880c
80880c
80500c
80500c
80200c
80000c
80000c
40001c
3ffff8
1ffff0
ENDCHAR
STARTCHAR abbrmenubuinv
ENCODING 23
SWIDTH 96 0
DWIDTH 22 0
BBX 22 21 0 -21
BITMAP
3fffe0
400010
9fffc8
bfffec
bfffec
b800ec
bbfeec
bdfdec
bdfdec
befbec
befbec
bf77ec
bf77ec
bfafec
bfafec
bfdfec
bfffec
9fffcc
40001c
3ffff8
1ffff0
ENDCHAR
STARTCHAR buutonupleft
ENCODING 24
SWIDTH 96 0
DWIDTH 18 0
BBX 18 28 0 -28
BITMAP
003fc0
01c000
030000
0c0000
180000
100000
200000
600000
400000
400000
800000
800000
800000
800000
800000
800000
800000
400000
400000
600000
200000
100000
180000
0c0000
000000
000000
000000
000000
ENDCHAR
STARTCHAR buutonLL
ENCODING 25
SWIDTH 96 0
DWIDTH 18 0
BBX 18 27 0 -27
BITMAP
000000
000000
000000
000000
000000
000000
000000
000000
000000
000000
000000
000000
000000
000000
000000
000000
000000
000000
000000
000000
000000
000000
000000
000000
070000
01c000
007fc0
ENDCHAR
STARTCHAR buttonLeftEndcapFill
ENCODING 26
SWIDTH 96 0
DWIDTH 18 0
BBX 18 28 0 -28
BITMAP
000000
003fc0
00ffc0
03ffc0
07ffc0
0fffc0
1fffc0
1fffc0
3fffc0
3fffc0
7fffc0
7fffc0
7fffc0
7fffc0
7fffc0
7fffc0
7fffc0
3fffc0
3fffc0
1fffc0
1fffc0
0fffc0
07ffc0
03ffc0
00ffc0
003fc0
000000
000000
ENDCHAR
STARTCHAR buutonupLR
ENCODING 27
SWIDTH 96 0
DWIDTH 18 0
BBX 18 27 0 -27
BITMAP
000000
000000
000000
000c00
000600
000200
000100
000180
000080
000080
000040
000040
000040
000040
000040
000040
000040
000080
000080
000180
000100
000200
000600
000c00
003000
00e000
ff0000
ENDCHAR
STARTCHAR buutonUL
ENCODING 28
SWIDTH 96 0
DWIDTH 18 0
BBX 18 27 0 -27
BITMAP
ff0000
00e000
003000
000000
000000
000000
000000
000000
000000
000000
000000
000000
000000
000000
000000
000000
000000
000000
000000
000000
000000
000000
000000
000000
000000
000000
000000
ENDCHAR
STARTCHAR buutonRightEndcapFil
ENCODING 29
SWIDTH 96 0
DWIDTH 18 0
BBX 18 28 0 -28
BITMAP
000000
ff0000
ffc000
fff000
fff800
fffc00
fffe00
fffe00
ffff00
ffff00
ffff80
ffff80
ffff80
ffff80
ffff80
ffff80
ffff80
ffff00
ffff00
fffe00
fffe00
fffc00
fff800
fff000
ffc000
ff0000
000000
000000
ENDCHAR
STARTCHAR BuTop-1
ENCODING 30
SWIDTH 96 0
DWIDTH 1 0
BBX 1 29 0 -29
BITMAP
80
00
00
00
00
00
00
00
00
00
00
00
00
00
00
00
00
00
00
00
00
00
00
00
00
00
00
00
00
ENDCHAR
STARTCHAR BuTop-2
ENCODING 31
SWIDTH 96 0
DWIDTH 2 0
BBX 2 29 0 -29
BITMAP
c0
00
00
00
00
00
00
00
00
00
00
00
00
00
00
00
00
00
00
00
00
00
00
00
00
00
00
00
00
ENDCHAR
STARTCHAR ButTop-4
ENCODING 32
SWIDTH 96 0
DWIDTH 4 0
BBX 4 29 0 -29
BITMAP
f0
00
00
00
00
00
00
00
00
00
00
00
00
00
00
00
00
00
00
00
00
00
00
00
00
00
00
00
00
ENDCHAR
STARTCHAR butTop-8
ENCODING 33
SWIDTH 96 0
DWIDTH 8 0
BBX 8 29 0 -29
BITMAP
ff
00
00
00
00
00
00
00
00
00
00
00
00
00
00
00
00
00
00
00
00
00
00
00
00
00
00
00
00
ENDCHAR
STARTCHAR butTop-16
ENCODING 34
SWIDTH 96 0
DWIDTH 16 0
BBX 16 29 0 -29
BITMAP
ffff
0000
0000
0000
0000
0000
0000
0000
0000
0000
0000
0000
0000
0000
0000
0000
0000
0000
0000
0000
0000
0000
0000
0000
0000
0000
0000
0000
0000
ENDCHAR
STARTCHAR butBot-1
ENCODING 35
SWIDTH 96 0
DWIDTH 1 0
BBX 1 27 0 -27
BITMAP
00
00
00
00
00
00
00
00
00
00
00
00
00
00
00
00
00
00
00
00
00
00
00
00
00
00
80
ENDCHAR
STARTCHAR butBot-2
ENCODING 36
SWIDTH 96 0
DWIDTH 2 0
BBX 2 27 0 -27
BITMAP
00
00
00
00
00
00
00
00
00
00
00
00
00
00
00
00
00
00
00
00
00
00
00
00
00
00
c0
ENDCHAR
STARTCHAR butBot-4
ENCODING 37
SWIDTH 96 0
DWIDTH 4 0
BBX 4 27 0 -27
BITMAP
00
00
00
00
00
00
00
00
00
00
00
00
00
00
00
00
00
00
00
00
00
00
00
00
00
00
f0
ENDCHAR
STARTCHAR butBot-8
ENCODING 38
SWIDTH 96 0
DWIDTH 8 0
BBX 8 27 0 -27
BITMAP
00
00
00
00
00
00
00
00
00
00
00
00
00
00
00
00
00
00
00
00
00
00
00
00
00
00
ff
ENDCHAR
STARTCHAR butBot-16
ENCODING 39
SWIDTH 96 0
DWIDTH 16 0
BBX 16 27 0 -27
BITMAP
0000
0000
0000
0000
0000
0000
0000
0000
0000
0000
0000
0000
0000
0000
0000
0000
0000
0000
0000
0000
0000
0000
0000
0000
0000
0000
ffff
ENDCHAR
STARTCHAR butFill-1
ENCODING 40
SWIDTH 96 0
DWIDTH 1 0
BBX 1 29 0 -29
BITMAP
00
80
80
80
80
80
80
80
80
80
80
80
80
80
80
80
80
80
80
80
80
80
80
80
80
80
00
00
00
ENDCHAR
STARTCHAR butFill-2
ENCODING 41
SWIDTH 96 0
DWIDTH 2 0
BBX 2 29 0 -29
BITMAP
00
c0
c0
c0
c0
c0
c0
c0
c0
c0
c0
c0
c0
c0
c0
c0
c0
c0
c0
c0
c0
c0
c0
c0
c0
c0
00
00
00
ENDCHAR
STARTCHAR butFill-4
ENCODING 42
SWIDTH 96 0
DWIDTH 4 0
BBX 4 29 0 -29
BITMAP
00
f0
f0
f0
f0
f0
f0
f0
f0
f0
f0
f0
f0
f0
f0
f0
f0
f0
f0
f0
f0
f0
f0
f0
f0
f0
00
00
00
ENDCHAR
STARTCHAR butFill-8
ENCODING 43
SWIDTH 96 0
DWIDTH 8 0
BBX 8 29 0 -29
BITMAP
00
ff
ff
ff
ff
ff
ff
ff
ff
ff
ff
ff
ff
ff
ff
ff
ff
ff
ff
ff
ff
ff
ff
ff
ff
ff
00
00
00
ENDCHAR
STARTCHAR butFill-16
ENCODING 44
SWIDTH 96 0
DWIDTH 16 0
BBX 16 29 0 -29
BITMAP
0000
ffff
ffff
ffff
ffff
ffff
ffff
ffff
ffff
ffff
ffff
ffff
ffff
ffff
ffff
ffff
ffff
ffff
ffff
ffff
ffff
ffff
ffff
ffff
ffff
ffff
0000
0000
0000
ENDCHAR
STARTCHAR VertMeMaUL
ENCODING 45
SWIDTH 96 0
DWIDTH 0 0
BBX 13 13 0 -13
BITMAP
fff8
8000
4000
4000
2000
2000
1000
1000
0800
0800
0400
0400
0000
ENDCHAR
STARTCHAR VertMeMaLR
ENCODING 46
SWIDTH 96 0
DWIDTH 0 0
BBX 13 13 0 -13
BITMAP
0000
0008
0010
0010
0020
0020
0040
0040
0080
0080
0100
0100
0200
ENDCHAR
STARTCHAR VertMeMafill
ENCODING 47
SWIDTH 96 0
DWIDTH 13 0
BBX 13 13 0 -13
BITMAP
0000
7ff0
3fe0
3fe0
1fc0
1fc0
0f80
0f80
0700
0700
0200
0200
0000
ENDCHAR
STARTCHAR HorizMeMaUL
ENCODING 48
SWIDTH 96 0
DWIDTH 0 0
BBX 12 13 0 -13
BITMAP
c000
b000
8c00
8300
80c0
8030
8000
8000
8000
8000
8000
8000
8000
ENDCHAR
STARTCHAR HorizMeMaLR
ENCODING 49
SWIDTH 96 0
DWIDTH 0 0
BBX 13 13 0 -13
BITMAP
0000
0000
0000
0000
0000
0000
0008
0030
00c0
0300
0c00
3000
4000
ENDCHAR
STARTCHAR HoriMeMafill
ENCODING 50
SWIDTH 96 0
DWIDTH 13 0
BBX 13 13 0 -13
BITMAP
0000
4000
7000
7c00
7f00
7fc0
7ff0
7fc0
7f00
7c00
7000
4000
0000
ENDCHAR
STARTCHAR AbbMeBu-UL
ENCODING 51
SWIDTH 96 0
DWIDTH 21 0
BBX 21 21 0 -21
BITMAP
3fffe0
400000
800000
800000
800000
800000
800000
800000
800000
800000
800000
800000
800000
800000
800000
800000
800000
800000
800000
400000
000000
ENDCHAR
STARTCHAR AbbMeBu-LR
ENCODING 52
SWIDTH 96 0
DWIDTH 21 0
BBX 21 21 0 -21
BITMAP
000000
000010
000008
000008
000008
000008
000008
000008
000008
000008
000008
000008
000008
000008
000008
000008
000008
000008
000008
000010
3fffe0
ENDCHAR
STARTCHAR AbbMeBu-fill
ENCODING 53
SWIDTH 96 0
DWIDTH 21 0
BBX 21 21 0 -21
BITMAP
000000
3fffe0
7ffff0
7ffff0
7ffff0
7ffff0
7ffff0
7ffff0
7ffff0
7ffff0
7ffff0
7ffff0
7ffff0
7ffff0
7ffff0
7ffff0
7ffff0
7ffff0
7ffff0
3fffe0
000000
ENDCHAR
STARTCHAR VertSc-UL
ENCODING 54
SWIDTH 96 0
DWIDTH 21 0
BBX 21 65 0 -65
BITMAP
7ffff0
800000
800000
800000
800000
800000
800000
800000
800000
800000
800000
800000
800000
800000
800000
800000
800000
800000
800000
800000
800000
ffffe0
800000
800000
800000
800000
800000
800000
800000
800000
800000
800000
800000
800000
800000
800000
800000
800000
800000
800000
800000
800000
800000
800000
800000
800000
800000
800000
800000
800000
800000
800000
800000
800000
800000
800000
800000
800000
800000
800000
800000
800000
800000
800000
000000
ENDCHAR
STARTCHAR VertSc-LR
ENCODING 55
SWIDTH 96 0
DWIDTH 21 0
BBX 20 64 0 -64
BITMAP
000000
000010
000010
000010
000010
000010
006010
00f010
01f810
03fc10
07fe10
0fff10
1fff90
1fff90
000010
000010
000010
000010
000010
000010
000010
000010
000010
000010
000010
000010
000010
000010
000010
000010
000010
000010
000010
000010
000010
000010
000010
000010
000010
000010
000010
000010
7ffff0
000010
000010
000010
000010
000010
000010
000010
1fff90
1fff90
0fff10
07fe10
03fc10
01f810
00f010
006010
000010
000010
000010
000010
000010
7ffff0
ENDCHAR
STARTCHAR Vert-sb-bot-fill
ENCODING 56
SWIDTH 96 0
DWIDTH 21 0
BBX 21 22 0 -22
BITMAP
800008
7fffe0
7fffe0
7fffe0
7fffe0
7fffe0
7f9fe0
7f0fe0
7e07e0
7c03e0
7801e0
7000e0
600060
600060
7fffe0
7fffe0
7fffe0
7fffe0
7fffe0
7fffe0
7fffe0
000000
ENDCHAR
STARTCHAR HoriScb-UL
ENCODING 57
SWIDTH 96 0
DWIDTH 65 0
BBX 64 20 0 -20
BITMAP
7fffffffffffffff
8000040000000000
8000040000000000
8000040000000000
8000040000000000
8000040000000000
8000040000000000
8000040000000000
8000040000000000
8000040000000000
8000040000000000
8000040000000000
8000040000000000
8000040000000000
8000040000000000
8000040000000000
8000040000000000
8000040000000000
8000040000000000
8000000000000000
ENDCHAR
STARTCHAR HoriSc-LR
ENCODING 58
SWIDTH 96 0
DWIDTH 65 0
BBX 64 20 0 -20
BITMAP
0000000000000000
0000000000200001
0000000000200001
000c000000203001
001c000000203801
003c000000203c01
007c000000203e01
00fc000000203f01
01fc000000203f81
03fc000000203fc1
03fc000000203fc1
01fc000000203f81
00fc000000203f01
007c000000203e01
003c000000203c01
001c000000203801
000c000000203001
0000000000200001
0000000000200001
7fffffffffffffff
ENDCHAR
STARTCHAR Ver-sb-bot-fill
ENCODING 59
SWIDTH 96 0
DWIDTH 20 0
BBX 20 23 0 -23
BITMAP
000000
7fffe0
7fffe0
7fffe0
7fffe0
7fffe0
7fffe0
7fffe0
7fffe0
600060
600060
7000e0
7801e0
7c03e0
7e07e0
7f0fe0
7f9fe0
7fffe0
7fffe0
7fffe0
7fffe0
7fffe0
000000
ENDCHAR
STARTCHAR HoriSliContrUL
ENCODING 60
SWIDTH 96 0
DWIDTH 15 0
BBX 15 21 0 -21
BITMAP
7ffc
8000
8000
8000
8000
8000
8000
8000
8000
8000
8000
8000
8000
8000
8000
8000
8000
8000
8000
8000
0000
ENDCHAR
STARTCHAR HoriSliContrLR
ENCODING 61
SWIDTH 96 0
DWIDTH 15 0
BBX 15 21 0 -21
BITMAP
0000
0002
0002
0002
0002
0002
0002
0002
0002
0002
0002
0002
0002
0002
0002
0002
0002
0002
0002
0002
7ffc
ENDCHAR
STARTCHAR HoriSliContrfill
ENCODING 62
SWIDTH 96 0
DWIDTH 15 0
BBX 15 21 0 -21
BITMAP
8002
7ffc
7ffc
7ffc
7ffc
7ffc
7ffc
7ffc
7ffc
7ffc
7ffc
7ffc
7ffc
7ffc
7ffc
7ffc
7ffc
7ffc
7ffc
7ffc
8002
ENDCHAR
STARTCHAR HoriSlid-UL
ENCODING 63
SWIDTH 96 0
DWIDTH 4 0
BBX 4 8 0 -8
BITMAP
30
40
80
80
80
80
00
00
ENDCHAR
STARTCHAR @
ENCODING 64
SWIDTH 96 0
DWIDTH 4 0
BBX 4 8 0 -8
BITMAP
00
00
00
00
00
00
40
30
ENDCHAR
STARTCHAR HorizSlider-UR
ENCODING 65
SWIDTH 96 0
DWIDTH 3 0
BBX 4 8 0 -8
BITMAP
c0
20
00
00
00
00
00
00
ENDCHAR
STARTCHAR B
ENCODING 66
SWIDTH 96 0
DWIDTH 4 0
BBX 4 8 0 -8
BITMAP
00
00
10
10
10
10
20
c0
ENDCHAR
STARTCHAR HorizSliderBot-1
ENCODING 67
SWIDTH 96 0
DWIDTH 1 0
BBX 1 8 0 -8
BITMAP
00
00
00
00
00
00
00
80
ENDCHAR
STARTCHAR HorizSliderBot-2
ENCODING 68
SWIDTH 96 0
DWIDTH 2 0
BBX 2 8 0 -8
BITMAP
00
00
00
00
00
00
00
c0
ENDCHAR
STARTCHAR HorizSliderBot-4
ENCODING 69
SWIDTH 96 0
DWIDTH 4 0
BBX 4 8 0 -8
BITMAP
00
00
00
00
00
00
00
f0
ENDCHAR
STARTCHAR HorizSliderBot-8
ENCODING 70
SWIDTH 96 0
DWIDTH 8 0
BBX 8 8 0 -8
BITMAP
00
00
00
00
00
00
00
ff
ENDCHAR
STARTCHAR HorizSliderBot-16
ENCODING 71
SWIDTH 96 0
DWIDTH 16 0
BBX 16 8 0 -8
BITMAP
0000
0000
0000
0000
0000
0000
0000
ffff
ENDCHAR
STARTCHAR HorizSlidFill-1
ENCODING 72
SWIDTH 96 0
DWIDTH 1 0
BBX 1 8 0 -8
BITMAP
00
80
80
80
80
80
80
00
ENDCHAR
STARTCHAR HorizSlidFill-2
ENCODING 73
SWIDTH 96 0
DWIDTH 2 0
BBX 2 8 0 -8
BITMAP
00
c0
c0
c0
c0
c0
c0
00
ENDCHAR
STARTCHAR HorizSlidFill-4
ENCODING 74
SWIDTH 96 0
DWIDTH 4 0
BBX 4 8 0 -8
BITMAP
00
f0
f0
f0
f0
f0
f0
00
ENDCHAR
STARTCHAR HorizSlidFill-8
ENCODING 75
SWIDTH 96 0
DWIDTH 8 0
BBX 8 8 0 -8
BITMAP
00
ff
ff
ff
ff
ff
ff
00
ENDCHAR
STARTCHAR HorizSlidFill-16
ENCODING 76
SWIDTH 96 0
DWIDTH 16 0
BBX 16 8 0 -8
BITMAP
0000
ffff
ffff
ffff
ffff
ffff
ffff
0000
ENDCHAR
STARTCHAR HorSliderLeftEndCApF
ENCODING 77
SWIDTH 96 0
DWIDTH 4 0
BBX 4 8 0 -8
BITMAP
00
30
70
70
70
70
30
00
ENDCHAR
STARTCHAR HorSliderRightEndCap
ENCODING 78
SWIDTH 96 0
DWIDTH 3 0
BBX 3 8 0 -8
BITMAP
00
c0
e0
e0
e0
e0
c0
00
ENDCHAR
STARTCHAR VertSlider-TL
ENCODING 79
SWIDTH 96 0
DWIDTH 8 0
BBX 8 4 0 -4
BITMAP
3c
40
80
80
ENDCHAR
STARTCHAR VertSlider-TR
ENCODING 80
SWIDTH 96 0
DWIDTH 8 0
BBX 8 4 0 -4
BITMAP
00
02
01
01
ENDCHAR
STARTCHAR VertSlider-TFill
ENCODING 81
SWIDTH 96 0
DWIDTH 8 0
BBX 9 4 0 -4
BITMAP
0000
3c00
7e00
7e00
ENDCHAR
STARTCHAR VertSlider-LL
ENCODING 82
SWIDTH 96 0
DWIDTH 8 0
BBX 8 4 0 -4
BITMAP
80
80
40
00
ENDCHAR
STARTCHAR VertSlider-LR
ENCODING 83
SWIDTH 96 0
DWIDTH 8 0
BBX 8 4 0 -4
BITMAP
01
01
02
3c
ENDCHAR
STARTCHAR VertSliderBotFill
ENCODING 84
SWIDTH 96 0
DWIDTH 8 0
BBX 8 4 0 -4
BITMAP
7e
7e
3c
00
ENDCHAR
STARTCHAR VertSliderControl-TL
ENCODING 85
SWIDTH 96 0
DWIDTH 21 0
BBX 21 15 0 -15
BITMAP
7ffff0
800000
800000
800000
800000
800000
800000
800000
800000
800000
800000
800000
800000
800000
000000
ENDCHAR
STARTCHAR VertSliderControl-LR
ENCODING 86
SWIDTH 96 0
DWIDTH 21 0
BBX 21 15 0 -15
BITMAP
000000
000008
000008
000008
000008
000008
000008
000008
000008
000008
000008
000008
000008
000008
7ffff0
ENDCHAR
STARTCHAR VertSliderControlFil
ENCODING 87
SWIDTH 96 0
DWIDTH 21 0
BBX 21 15 0 -15
BITMAP
800008
7ffff0
7ffff0
7ffff0
7ffff0
7ffff0
7ffff0
7ffff0
7ffff0
7ffff0
7ffff0
7ffff0
7ffff0
7ffff0
800008
ENDCHAR
STARTCHAR ULresizeUL
ENCODING 88
SWIDTH 96 0
DWIDTH 14 0
BBX 14 14 0 -14
BITMAP
fffc
8000
8000
8000
8000
8000
8000
8000
8000
8000
8000
8000
8000
8000
ENDCHAR
STARTCHAR ULresizeLR
ENCODING 89
SWIDTH 96 0
DWIDTH 14 0
BBX 14 14 0 -14
BITMAP
0000
0004
0004
0004
0004
07fc
0400
0400
0400
0400
0400
0400
0400
7c00
ENDCHAR
STARTCHAR ULresizeFill
ENCODING 90
SWIDTH 96 0
DWIDTH 14 0
BBX 14 14 0 -14
BITMAP
0000
7ff8
7ff8
7ff8
7ff8
7800
7800
7800
7800
7800
7800
7800
7800
0000
ENDCHAR
STARTCHAR URResizeUL
ENCODING 91
SWIDTH 96 0
DWIDTH 14 0
BBX 14 14 0 -14
BITMAP
fffc
8000
8000
8000
8000
8000
0080
0080
0080
0080
0080
0080
0080
0080
ENDCHAR
STARTCHAR URResizeLR
ENCODING 92
SWIDTH 96 0
DWIDTH 14 0
BBX 14 14 0 -14
BITMAP
0000
0004
0004
0004
0004
7f04
0004
0004
0004
0004
0004
0004
0004
007c
ENDCHAR
STARTCHAR URResizeFill
ENCODING 93
SWIDTH 96 0
DWIDTH 14 0
BBX 14 14 0 -14
BITMAP
0000
7ff8
7ff8
7ff8
7ff8
0078
0078
0078
0078
0078
0078
0078
0078
0000
ENDCHAR
STARTCHAR LRresizeUL
ENCODING 94
SWIDTH 96 0
DWIDTH 14 0
BBX 14 14 0 -14
BITMAP
00fc
0080
0080
0080
0080
0080
0080
0080
ff80
8000
8000
8000
8000
8000
ENDCHAR
STARTCHAR LRresizeLR
ENCODING 95
SWIDTH 96 0
DWIDTH 14 0
BBX 14 14 0 -14
BITMAP
0000
0004
0004
0004
0004
0004
0004
0004
0004
0004
0004
0004
0004
7ffc
ENDCHAR
STARTCHAR LRresizeFill
ENCODING 96
SWIDTH 96 0
DWIDTH 14 0
BBX 14 14 0 -14
BITMAP
0000
0078
0078
0078
0078
0078
0078
0078
0078
7ff8
7ff8
7ff8
7ff8
0000
ENDCHAR
STARTCHAR LLresizeUL
ENCODING 97
SWIDTH 96 0
DWIDTH 14 0
BBX 14 14 0 -14
BITMAP
fc00
8000
8000
8000
8000
8000
8000
8000
83fc
8000
8000
8000
8000
8000
ENDCHAR
STARTCHAR LLresizeLR
ENCODING 98
SWIDTH 96 0
DWIDTH 14 0
BBX 14 14 0 -14
BITMAP
0000
0400
0400
0400
0400
0400
0400
0400
0000
0004
0004
0004
0004
7ffc
ENDCHAR
STARTCHAR LLresizeFill
ENCODING 99
SWIDTH 96 0
DWIDTH 14 0
BBX 13 13 0 -13
BITMAP
0000
7800
7800
7800
7800
7800
7800
7800
7800
7ff8
7ff8
7ff8
7ff8
ENDCHAR
STARTCHAR PushPinOutTop
ENCODING 100
SWIDTH 96 0
DWIDTH 28 0
BBX 28 14 0 -14
BITMAP
0001c000
00010060
00010080
00011f80
00010080
00010080
07ff0080
00010080
00010080
00010080
00010000
10010000
10010000
60010000
ENDCHAR
STARTCHAR PushPinOutBottom
ENCODING 101
SWIDTH 96 0
DWIDTH 28 0
BBX 28 14 0 -14
BITMAP
00000000
00002000
00002010
00002010
00002010
00002010
00002010
03fe2090
00003f90
00003ff0
600020f0
8000e060
8000e000
0000c000
ENDCHAR
STARTCHAR PushPinOutFill
ENCODING 102
SWIDTH 96 0
DWIDTH 28 0
BBX 28 14 0 -14
BITMAP
00000000
0000c000
0000c060
0000c060
0000df60
0000df60
0000df60
0000df60
0000df60
0000c060
0000c000
60000000
60000000
00000000
ENDCHAR
STARTCHAR PushPinInTop
ENCODING 103
SWIDTH 96 0
DWIDTH 15 0
BBX 15 15 0 -15
BITMAP
00e0
0710
1c00
2400
4800
4800
8800
8c00
8000
c000
4000
4000
4000
8000
0000
ENDCHAR
STARTCHAR PushPinInBottom
ENCODING 104
SWIDTH 96 0
DWIDTH 15 0
BBX 15 15 0 -15
BITMAP
0000
0008
0004
0004
0002
0002
0002
0006
0404
071c
03f8
20f8
3870
7fe0
c780
ENDCHAR
STARTCHAR PushPinInFill
ENCODING 105
SWIDTH 96 0
DWIDTH 15 0
BBX 15 15 0 -15
BITMAP
0000
00e0
03f8
1bf8
37fc
37fc
77fc
73f8
7bf8
38e0
3c00
1f00
0780
0000
0000
ENDCHAR
STARTCHAR DefButRightEndCAp
ENCODING 106
SWIDTH 96 0
DWIDTH 18 0
BBX 18 26 0 -26
BITMAP
000000
000000
001fc0
006000
018000
020000
040000
080000
080000
100000
100000
200000
200000
200000
200000
200000
100000
100000
080000
080000
040000
020000
018000
006000
001fc0
000000
ENDCHAR
STARTCHAR DefButRightEndCAp
ENCODING 107
SWIDTH 96 0
DWIDTH 18 0
BBX 18 26 0 -26
BITMAP
000000
000000
fe0000
018000
006000
001000
000800
000400
000400
000200
000200
000100
000100
000100
000100
000100
000200
000200
000400
000400
000800
001000
006000
018000
fe0000
000000
ENDCHAR
STARTCHAR DefButMiddle-1
ENCODING 108
SWIDTH 96 0
DWIDTH 1 0
BBX 1 26 0 -26
BITMAP
00
00
80
00
00
00
00
00
00
00
00
00
00
00
00
00
00
00
00
00
00
00
00
00
80
00
ENDCHAR
STARTCHAR DefButMiddle-2
ENCODING 109
SWIDTH 96 0
DWIDTH 2 0
BBX 2 26 0 -26
BITMAP
00
00
c0
00
00
00
00
00
00
00
00
00
00
00
00
00
00
00
00
00
00
00
00
00
c0
00
ENDCHAR
STARTCHAR DefButMiddle-4
ENCODING 110
SWIDTH 96 0
DWIDTH 4 0
BBX 4 26 0 -26
BITMAP
00
00
f0
00
00
00
00
00
00
00
00
00
00
00
00
00
00
00
00
00
00
00
00
00
f0
00
ENDCHAR
STARTCHAR DefButMiddle-8
ENCODING 111
SWIDTH 96 0
DWIDTH 8 0
BBX 8 26 0 -26
BITMAP
00
00
ff
00
00
00
00
00
00
00
00
00
00
00
00
00
00
00
00
00
00
00
00
00
ff
00
ENDCHAR
STARTCHAR DefButMiddle-16
ENCODING 112
SWIDTH 96 0
DWIDTH 16 0
BBX 16 26 0 -26
BITMAP
0000
0000
ffff
0000
0000
0000
0000
0000
0000
0000
0000
0000
0000
0000
0000
0000
0000
0000
0000
0000
0000
0000
0000
0000
ffff
0000
ENDCHAR
STARTCHAR BaseOff-SpecialChar
ENCODING 113
SWIDTH 96 0
DWIDTH 1 0
BBX 1 9 0 -9
BITMAP
80
80
80
80
80
80
80
80
80
ENDCHAR
STARTCHAR UnCheckedBox-UL
ENCODING 114
SWIDTH 96 0
DWIDTH 26 0
BBX 26 22 0 -22
BITMAP
00000000
00000000
fffff000
80000000
80000000
80000000
80000000
80000000
80000000
80000000
80000000
80000000
80000000
80000000
80000000
80000000
80000000
80000000
80000000
80000000
80000000
80000000
ENDCHAR
STARTCHAR UnCheckedBox-LR
ENCODING 115
SWIDTH 96 0
DWIDTH 26 0
BBX 26 22 0 -22
BITMAP
00000000
00000000
00000000
00001000
00001000
00001000
00001000
00001000
00001000
00001000
00001000
00001000
00001000
00001000
00001000
00001000
00001000
00001000
00001000
00001000
00001000
7ffff000
ENDCHAR
STARTCHAR UnCheckedBoxFill
ENCODING 116
SWIDTH 96 0
DWIDTH 20 0
BBX 21 22 0 -22
BITMAP
000000
000000
000000
7fffe0
7fffe0
7fffe0
7fffe0
7fffe0
7fffe0
7fffe0
7fffe0
7fffe0
7fffe0
7fffe0
7fffe0
7fffe0
7fffe0
7fffe0
7fffe0
7fffe0
7fffe0
000000
ENDCHAR
STARTCHAR CheckMark
ENCODING 117
SWIDTH 96 0
DWIDTH 26 0
BBX 26 22 0 -22
BITMAP
000000c0
00000380
00000e00
00001c00
00007800
0000f000
0001e000
0003c000
0407c000
0e0f8000
1f1f0000
3fbe0000
7ffe0000
3ffc0000
1ff80000
0ff80000
07f00000
03f00000
01e00000
00e00000
00400000
00000000
ENDCHAR
STARTCHAR CheckedBoxFill
ENCODING 118
SWIDTH 96 0
DWIDTH 26 0
BBX 27 23 0 -23
BITMAP
00000000
00000000
00003000
7fffe000
7fff8000
7fff0000
7ffe1000
7ffc3000
7bf82000
71f06000
60e0e000
4041e000
0001e000
4003e000
6007e000
7007e000
780fe000
7c0fe000
7e1fe000
7f1fe000
7fbfe000
00000000
00000000
ENDCHAR
STARTCHAR UnCheckedBoxOutline
ENCODING 119
SWIDTH 96 0
DWIDTH 26 0
BBX 26 22 0 -22
BITMAP
00000000
00000000
fffff000
80001000
80001000
80001000
80001000
80001000
80001000
80001000
80001000
80001000
80001000
80001000
80001000
80001000
80001000
80001000
80001000
80001000
80001000
fffff000
ENDCHAR
STARTCHAR Horizgauge-UL
ENCODING 120
SWIDTH 96 0
DWIDTH 7 0
BBX 7 18 0 -18
BITMAP
02
0c
10
20
40
40
80
80
80
80
80
80
40
40
20
10
00
00
ENDCHAR
STARTCHAR Horizgauge-LL
ENCODING 121
SWIDTH 96 0
DWIDTH 7 0
BBX 7 18 0 -18
BITMAP
00
00
00
00
00
00
00
00
00
00
00
00
00
00
00
00
0c
02
ENDCHAR
STARTCHAR Horizgauge-UR
ENCODING 122
SWIDTH 96 0
DWIDTH 7 0
BBX 7 17 0 -17
BITMAP
80
60
00
00
00
00
00
00
00
00
00
00
00
00
00
00
00
ENDCHAR
STARTCHAR Horizgauge-LR
ENCODING 123
SWIDTH 96 0
DWIDTH 7 0
BBX 7 18 0 -18
BITMAP
00
00
10
08
04
04
02
02
02
02
02
02
04
04
08
10
60
80
ENDCHAR
STARTCHAR Horizgauge-MidleBot-
ENCODING 124
SWIDTH 96 0
DWIDTH 1 0
BBX 1 18 0 -18
BITMAP
00
00
00
00
00
00
00
00
00
00
00
00
00
00
00
00
00
80
ENDCHAR
STARTCHAR Horizgauge-MidleBot-
ENCODING 125
SWIDTH 96 0
DWIDTH 2 0
BBX 2 18 0 -18
BITMAP
00
00
00
00
00
00
00
00
00
00
00
00
00
00
00
00
00
c0
ENDCHAR
STARTCHAR Horizgauge-MidleBot-
ENCODING 126
SWIDTH 96 0
DWIDTH 4 0
BBX 4 18 0 -18
BITMAP
00
00
00
00
00
00
00
00
00
00
00
00
00
00
00
00
00
f0
ENDCHAR
STARTCHAR Horizgauge-MidleBot-
ENCODING 127
SWIDTH 96 0
DWIDTH 8 0
BBX 8 18 0 -18
BITMAP
00
00
00
00
00
00
00
00
00
00
00
00
00
00
00
00
00
ff
ENDCHAR
STARTCHAR Horizgauge-MidleBot-
ENCODING 128
SWIDTH 96 0
DWIDTH 16 0
BBX 16 18 0 -18
BITMAP
0000
0000
0000
0000
0000
0000
0000
0000
0000
0000
0000
0000
0000
0000
0000
0000
0000
ffff
ENDCHAR
STARTCHAR VertGauge-UL
ENCODING 129
SWIDTH 96 0
DWIDTH 17 0
BBX 17 7 0 -7
BITMAP
03f000
0c0c00
100000
200000
400000
400000
800000
ENDCHAR
STARTCHAR VertGauge-UR
ENCODING 130
SWIDTH 96 0
DWIDTH 18 0
BBX 18 7 0 -7
BITMAP
000000
000000
000200
000100
000080
000080
000040
ENDCHAR
STARTCHAR VertGauge-LL
ENCODING 131
SWIDTH 96 0
DWIDTH 18 0
BBX 18 7 0 -7
BITMAP
800000
400000
400000
200000
100000
000000
000000
ENDCHAR
STARTCHAR VertGauge-LR
ENCODING 132
SWIDTH 96 0
DWIDTH 17 0
BBX 17 7 0 -7
BITMAP
000080
000100
000100
000200
000400
181800
07e000
ENDCHAR
STARTCHAR VertAbbrScroBarUL
ENCODING 133
SWIDTH 96 0
DWIDTH 26 0
BBX 21 44 0 -44
BITMAP
7ffff0
800000
800000
800000
800000
800000
800000
800000
800000
800000
800000
800000
800000
800000
800000
800000
800000
800000
800000
800000
800000
800000
800000
800000
800000
800000
800000
800000
800000
800000
800000
800000
800000
800000
800000
800000
800000
800000
800000
800000
800000
800000
800000
000000
ENDCHAR
STARTCHAR VertAbbrScroBarLR
ENCODING 134
SWIDTH 96 0
DWIDTH 21 0
BBX 20 43 0 -43
BITMAP
000000
000010
000010
000010
000010
000010
006010
00f010
01f810
03fc10
07fe10
0fff10
1fff90
1fff90
000010
000010
000010
000010
000010
000010
000010
7ffff0
000010
000010
000010
000010
000010
000010
000010
1fff90
1fff90
0fff10
07fe10
03fc10
01f810
00f010
006010
000010
000010
000010
000010
000010
7ffff0
ENDCHAR
STARTCHAR Horiz-sb-rightbox-fi
ENCODING 135
SWIDTH 96 0
DWIDTH 23 0
BBX 23 21 0 -21
BITMAP
000002
7ffff8
7ffff8
7f3ff8
7f1ff8
7f0ff8
7f07f8
7f03f8
7f01f8
7f00f8
7f00f8
7f01f8
7f03f8
7f07f8
7f0ff8
7f1ff8
7f3ff8
7ffff8
7ffff8
000000
000002
ENDCHAR
STARTCHAR HoriabbScrBa-UL
ENCODING 136
SWIDTH 96 0
DWIDTH 44 0
BBX 45 21 0 -21
BITMAP
7fffffffffe0
800000000000
800000000000
800000000000
800000000000
800000000000
800000000000
800000000000
800000000000
800000000000
800000000000
800000000000
800000000000
800000000000
800000000000
800000000000
800000000000
800000000000
800000000000
800000000000
000000000000
ENDCHAR
STARTCHAR HorizAbbScroBa-LR
ENCODING 137
SWIDTH 96 0
DWIDTH 44 0
BBX 43 20 0 -20
BITMAP
000000000000
000004000020
000004000020
000c04060020
001c04070020
003c04078020
007c0407c020
00fc0407e020
01fc0407f020
03fc0407f820
03fc0407f820
01fc0407f020
00fc0407e020
007c0407c020
003c04078020
001c04070020
000c04060020
000004000020
000004000020
7fffffffffe0
ENDCHAR
STARTCHAR Horiz-sb-leftbox-fil
ENCODING 138
SWIDTH 96 0
DWIDTH 22 0
BBX 21 21 0 -21
BITMAP
800000
7ffff8
7ffff8
7ff3f8
7fe3f8
7fc3f8
7f83f8
7f03f8
7e03f8
7c03f8
7c03f8
7e03f8
7f03f8
7f83f8
7fc3f8
7fe3f8
7ff3f8
7ffff8
7ffff8
000000
800000
ENDCHAR
STARTCHAR ButOutlLeftEndCAp
ENCODING 139
SWIDTH 96 0
DWIDTH 18 0
BBX 18 28 0 -28
BITMAP
003fc0
01c000
030000
0c0000
180000
100000
200000
600000
400000
400000
800000
800000
800000
800000
800000
800000
800000
400000
400000
600000
200000
100000
180000
0c0000
070000
01c000
00ffc0
001fc0
ENDCHAR
STARTCHAR ButOutRightEndCap
ENCODING 140
SWIDTH 96 0
DWIDTH 19 0
BBX 19 28 0 -28
BITMAP
ff0000
00e000
003000
000c00
000600
000300
000100
000180
0000c0
0000c0
000040
000060
000060
000060
000060
000060
000060
0000e0
0000c0
0001c0
000180
000380
000700
000f00
003e00
00fc00
fff000
ff8000
ENDCHAR
STARTCHAR ButOutlMiddle-1
ENCODING 141
SWIDTH 96 0
DWIDTH 1 0
BBX 1 28 0 -28
BITMAP
80
00
00
00
00
00
00
00
00
00
00
00
00
00
00
00
00
00
00
00
00
00
00
00
00
00
80
80
ENDCHAR
STARTCHAR ButOutlMiddle-2
ENCODING 142
SWIDTH 96 0
DWIDTH 2 0
BBX 2 28 0 -28
BITMAP
c0
00
00
00
00
00
00
00
00
00
00
00
00
00
00
00
00
00
00
00
00
00
00
00
00
00
c0
c0
ENDCHAR
STARTCHAR ButOutlMiddle-4
ENCODING 143
SWIDTH 96 0
DWIDTH 4 0
BBX 4 28 0 -28
BITMAP
f0
00
00
00
00
00
00
00
00
00
00
00
00
00
00
00
00
00
00
00
00
00
00
00
00
00
f0
f0
ENDCHAR
STARTCHAR ButOutlMiddle-8
ENCODING 144
SWIDTH 96 0
DWIDTH 8 0
BBX 8 28 0 -28
BITMAP
ff
00
00
00
00
00
00
00
00
00
00
00
00
00
00
00
00
00
00
00
00
00
00
00
00
00
ff
ff
ENDCHAR
STARTCHAR ButOutlMiddle-16
ENCODING 145
SWIDTH 96 0
DWIDTH 16 0
BBX 16 28 0 -28
BITMAP
ffff
0000
0000
0000
0000
0000
0000
0000
0000
0000
0000
0000
0000
0000
0000
0000
0000
0000
0000
0000
0000
0000
0000
0000
0000
0000
ffff
ffff
ENDCHAR
STARTCHAR ButOutlLeftEndCApFil
ENCODING 146
SWIDTH 96 0
DWIDTH 18 0
BBX 18 27 0 -27
BITMAP
000000
000000
000000
001fc0
007fc0
01ffc0
03ffc0
07ffc0
07ffc0
0fffc0
0fffc0
1fffc0
1fffc0
1fffc0
1fffc0
1fffc0
0fffc0
0fffc0
07ffc0
07ffc0
03ffc0
01ffc0
007fc0
001fc0
000000
000000
000000
ENDCHAR
STARTCHAR ButOutlRightEndCap
ENCODING 147
SWIDTH 96 0
DWIDTH 15 0
BBX 18 27 0 -27
BITMAP
000000
000000
000000
fe0000
ff8000
ffe000
fff000
fff800
fff800
fffc00
fffc00
fffe00
fffe00
fffe00
fffe00
fffe00
fffc00
fffc00
fff800
fff800
fff000
ffe000
ff8000
fe0000
000000
000000
000000
ENDCHAR
STARTCHAR ButOutlMiddleFill-1
ENCODING 148
SWIDTH 96 0
DWIDTH 1 0
BBX 1 27 0 -27
BITMAP
00
00
00
80
80
80
80
80
80
80
80
80
80
80
80
80
80
80
80
80
80
80
80
80
00
00
00
ENDCHAR
STARTCHAR ButOutlMiddleFill-2
ENCODING 149
SWIDTH 96 0
DWIDTH 2 0
BBX 2 27 0 -27
BITMAP
00
00
00
c0
c0
c0
c0
c0
c0
c0
c0
c0
c0
c0
c0
c0
c0
c0
c0
c0
c0
c0
c0
c0
00
00
00
ENDCHAR
STARTCHAR ButOutlMiddleFill-4
ENCODING 150
SWIDTH 96 0
DWIDTH 4 0
BBX 4 27 0 -27
BITMAP
00
00
00
f0
f0
f0
f0
f0
f0
f0
f0
f0
f0
f0
f0
f0
f0
f0
f0
f0
f0
f0
f0
f0
00
00
00
ENDCHAR
STARTCHAR ButOutlMiddleFill-8
ENCODING 151
SWIDTH 96 0
DWIDTH 8 0
BBX 8 27 0 -27
BITMAP
00
00
00
ff
ff
ff
ff
ff
ff
ff
ff
ff
ff
ff
ff
ff
ff
ff
ff
ff
ff
ff
ff
ff
00
00
00
ENDCHAR
STARTCHAR ButOutlMiddleFill-16
ENCODING 152
SWIDTH 96 0
DWIDTH 16 0
BBX 16 27 0 -27
BITMAP
0000
0000
0000
ffff
ffff
ffff
ffff
ffff
ffff
ffff
ffff
ffff
ffff
ffff
ffff
ffff
ffff
ffff
ffff
ffff
ffff
ffff
ffff
ffff
0000
0000
0000
ENDCHAR
STARTCHAR MenuDfltOutlLeftEndc
ENCODING 153
SWIDTH 96 0
DWIDTH 14 0
BBX 14 23 0 -23
BITMAP
00fc
0300
0c00
1000
2000
2000
4000
4000
8000
8000
8000
8000
8000
8000
8000
4000
4000
2000
2000
1000
0c00
0300
00fc
ENDCHAR
STARTCHAR MenuDfltOutlRightEnd
ENCODING 154
SWIDTH 96 0
DWIDTH 14 0
BBX 14 23 0 -23
BITMAP
fc00
0300
00c0
0020
0010
0010
0008
0008
0004
0004
0004
0004
0004
0004
0004
0008
0008
0010
0010
0020
00c0
0300
fc00
ENDCHAR
STARTCHAR MenuDfltOutlMiddle-1
ENCODING 155
SWIDTH 96 0
DWIDTH 1 0
BBX 1 23 0 -23
BITMAP
80
00
00
00
00
00
00
00
00
00
00
00
00
00
00
00
00
00
00
00
00
00
80
ENDCHAR
STARTCHAR MenuDfltOutlMiddle-2
ENCODING 156
SWIDTH 96 0
DWIDTH 2 0
BBX 2 23 0 -23
BITMAP
c0
00
00
00
00
00
00
00
00
00
00
00
00
00
00
00
00
00
00
00
00
00
c0
ENDCHAR
STARTCHAR MenuDfltOutlMiddle-4
ENCODING 157
SWIDTH 96 0
DWIDTH 4 0
BBX 4 23 0 -23
BITMAP
f0
00
00
00
00
00
00
00
00
00
00
00
00
00
00
00
00
00
00
00
00
00
f0
ENDCHAR
STARTCHAR MenuDfltOutlMiddle-8
ENCODING 158
SWIDTH 96 0
DWIDTH 8 0
BBX 8 23 0 -23
BITMAP
ff
00
00
00
00
00
00
00
00
00
00
00
00
00
00
00
00
00
00
00
00
00
ff
ENDCHAR
STARTCHAR MenuDfltOutlMiddle-1
ENCODING 159
SWIDTH 96 0
DWIDTH 16 0
BBX 16 23 0 -23
BITMAP
ffff
0000
0000
0000
0000
0000
0000
0000
0000
0000
0000
0000
0000
0000
0000
0000
0000
0000
0000
0000
0000
0000
ffff
ENDCHAR
STARTCHAR ButtonSpecial-UL
ENCODING 160
SWIDTH 96 0
DWIDTH 7 0
BBX 7 7 0 -7
BITMAP
0e
30
40
40
80
80
80
ENDCHAR
STARTCHAR ButtonSpecial-LL
ENCODING 161
SWIDTH 96 0
DWIDTH 6 0
BBX 7 7 0 -7
BITMAP
80
80
80
40
40
30
0e
ENDCHAR
STARTCHAR REsizeOutl-UL
ENCODING 162
SWIDTH 96 0
DWIDTH 14 0
BBX 14 14 0 -14
BITMAP
fffc
8004
8004
8004
8004
87fc
8400
8400
8400
8400
8400
8400
8400
fc00
ENDCHAR
STARTCHAR REsizeOutl-UR
ENCODING 163
SWIDTH 96 0
DWIDTH 14 0
BBX 14 14 0 -14
BITMAP
fffc
8004
8004
8004
8004
ff84
0084
0084
0084
0084
0084
0084
0084
00fc
ENDCHAR
STARTCHAR REsizeOutl-LR
ENCODING 164
SWIDTH 96 0
DWIDTH 14 0
BBX 14 14 0 -14
BITMAP
00fc
0084
0084
0084
0084
0084
0084
0084
ff84
8004
8004
8004
8004
fffc
ENDCHAR
STARTCHAR REsizeOutl-LL
ENCODING 165
SWIDTH 96 0
DWIDTH 14 0
BBX 14 14 0 -14
BITMAP
fc00
8400
8400
8400
8400
8400
8400
8400
87fc
8004
8004
8004
8004
fffc
ENDCHAR
STARTCHAR VerticalScrollbarEle
ENCODING 166
SWIDTH 96 0
DWIDTH 21 0
BBX 21 65 0 -65
BITMAP
7ffff0
800018
800018
800018
800018
800018
804018
80a018
815018
82a818
855418
8aaa18
955518
8aaa18
800018
800018
800018
800018
800018
800018
800018
fffff8
800018
800018
800018
800018
800018
800018
800018
800018
800018
800018
800018
800018
800018
800018
800018
800018
800018
800018
800018
800018
fffff8
800018
800018
800018
800018
800018
800018
800018
9fff98
9fff98
8fff18
87fe18
83fc18
81f818
80f018
806018
800018
800018
800018
800018
800018
fffff8
7ffff0
ENDCHAR
STARTCHAR VerticalScrollbarEle
ENCODING 167
SWIDTH 96 0
DWIDTH 22 0
BBX 21 65 0 -65
BITMAP
7ffff0
800018
800018
800018
800018
800018
806018
80f018
81f818
83fc18
87fe18
8fff18
9fff98
9fff98
800018
800018
800018
800018
800018
800018
800018
fffff8
800018
800018
800018
800018
800018
800018
800018
800018
800018
800018
800018
800018
800018
800018
800018
800018
800018
800018
800018
800018
fffff8
800018
800018
800018
800018
800018
800018
800018
8aaa18
955518
8aaa18
855418
82a818
815018
80a018
804018
800018
800018
800018
800018
800018
fffff8
7ffff0
ENDCHAR
STARTCHAR VerticalScrollbarEle
ENCODING 168
SWIDTH 96 0
DWIDTH 21 0
BBX 21 65 0 -65
BITMAP
7ffff0
800018
800018
800018
800018
800018
804018
80a018
815018
82a818
855418
8aaa18
955518
8aaa18
800018
800018
800018
800018
800018
800018
800018
fffff8
800018
800018
800018
800018
800018
800018
800018
800018
800018
800018
800018
800018
800018
800018
800018
800018
800018
800018
800018
800018
fffff8
800018
800018
800018
800018
800018
800018
800018
8aaa18
955518
8aaa18
855418
82a818
815018
80a018
804018
800018
800018
800018
800018
800018
fffff8
7ffff0
ENDCHAR
STARTCHAR HorizontalScrollbarE
ENCODING 169
SWIDTH 96 0
DWIDTH 65 0
BBX 65 21 0 -21
BITMAP
7fffffffffffffff00
800004000020000180
800004000020000180
800004000020300180
800804000020380180
8014040000203c0180
8028040000203e0180
8054040000203f0180
80a8040000203f8180
8154040000203fc180
82a8040000203fc180
8154040000203f8180
80a8040000203f0180
8054040000203e0180
8028040000203c0180
801404000020380180
800804000020300180
800004000020000180
800004000020000180
ffffffffffffffff80
7fffffffffffffff00
ENDCHAR
STARTCHAR HorizontalScrollbarE
ENCODING 170
SWIDTH 96 0
DWIDTH 66 0
BBX 65 21 0 -21
BITMAP
7fffffffffffffff00
800004000020000180
800004000020000180
800c04000020100180
801c04000020280180
803c04000020140180
807c040000202a0180
80fc04000020150180
81fc040000202a8180
83fc04000020154180
83fc040000202a8180
81fc04000020150180
80fc040000202a0180
807c04000020140180
803c04000020280180
801c04000020100180
800c04000020000180
800004000020000180
800004000020000180
ffffffffffffffff80
7fffffffffffffff00
ENDCHAR
STARTCHAR HorizontalScrollbarE
ENCODING 171
SWIDTH 96 0
DWIDTH 65 0
BBX 65 21 0 -21
BITMAP
7fffffffffffffff00
800004000020000180
800004000020000180
800004000020100180
800804000020280180
801404000020140180
8028040000202a0180
805404000020150180
80a8040000202a8180
815404000020154180
82a8040000202a8180
815404000020150180
80a8040000202a0180
805404000020140180
802804000020280180
801404000020100180
800804000020000180
800004000020000180
800004000020000180
ffffffffffffffff80
7fffffffffffffff00
ENDCHAR
STARTCHAR C172
ENCODING 172
SWIDTH 96 0
DWIDTH 15 0
BBX 15 21 0 -21
BITMAP
7ffc
8006
8006
8006
8006
8006
8006
8006
8006
8006
8006
8006
8006
8006
8006
8006
8006
8006
8006
fffe
7ffc
ENDCHAR
STARTCHAR HorizSliderLeftEndca
ENCODING 173
SWIDTH 96 0
DWIDTH 4 0
BBX 4 8 0 -8
BITMAP
30
40
80
80
80
80
40
30
ENDCHAR
STARTCHAR HorizSliderRightEndc
ENCODING 174
SWIDTH 96 0
DWIDTH 4 0
BBX 4 8 0 -8
BITMAP
c0
20
10
10
10
10
20
c0
ENDCHAR
STARTCHAR HorizSliderMiddle-1
ENCODING 175
SWIDTH 96 0
DWIDTH 1 0
BBX 1 8 0 -8
BITMAP
80
00
00
00
00
00
00
80
ENDCHAR
STARTCHAR HorizSliderMiddle-2
ENCODING 176
SWIDTH 96 0
DWIDTH 2 0
BBX 2 8 0 -8
BITMAP
c0
00
00
00
00
00
00
c0
ENDCHAR
STARTCHAR HorizSliderMiddle-4
ENCODING 177
SWIDTH 96 0
DWIDTH 4 0
BBX 4 8 0 -8
BITMAP
f0
00
00
00
00
00
00
f0
ENDCHAR
STARTCHAR HorizSliderMiddle-8
ENCODING 178
SWIDTH 96 0
DWIDTH 8 0
BBX 8 8 0 -8
BITMAP
ff
00
00
00
00
00
00
ff
ENDCHAR
STARTCHAR HorizSliderMiddle-16
ENCODING 179
SWIDTH 96 0
DWIDTH 16 0
BBX 16 8 0 -8
BITMAP
ffff
0000
0000
0000
0000
0000
0000
ffff
ENDCHAR
STARTCHAR VertSliderTopEndcap
ENCODING 180
SWIDTH 96 0
DWIDTH 8 0
BBX 8 4 0 -4
BITMAP
3c
42
81
81
ENDCHAR
STARTCHAR VertSliderBottomEndc
ENCODING 181
SWIDTH 96 0
DWIDTH 8 0
BBX 8 4 0 -4
BITMAP
81
81
42
3c
ENDCHAR
STARTCHAR VertSliderControlOut
ENCODING 182
SWIDTH 96 0
DWIDTH 21 0
BBX 21 15 0 -15
BITMAP
7ffff0
800018
800018
800018
800018
800018
800018
800018
800018
800018
800018
800018
800018
fffff8
7ffff0
ENDCHAR
STARTCHAR PushPinOutDefTop
ENCODING 183
SWIDTH 96 0
DWIDTH 27 0
BBX 27 15 0 -15
BITMAP
0001c000
00010060
00010080
00011f80
00010080
00010080
07ff0080
00010080
00010080
3c010080
40010000
80010000
84010000
84010000
98000000
ENDCHAR
STARTCHAR PushPinDefOutBottom
ENCODING 184
SWIDTH 96 0
DWIDTH 28 0
BBX 28 17 0 -17
BITMAP
00000000
00002000
00002010
00002010
00002010
00002010
00002010
03fe2090
00003f90
00003ff0
020020f0
1900e060
2100e000
2100c000
01000000
02000000
3c000000
ENDCHAR
STARTCHAR PushPinOutDefFill
ENCODING 185
SWIDTH 96 0
DWIDTH 27 0
BBX 27 14 0 -14
BITMAP
00000000
0000c000
0000c060
0000c060
0000df60
0000df60
0000df60
0000df60
0000df60
0000c060
0000c000
00000000
18000000
18000000
ENDCHAR
STARTCHAR HorizGauleLeftEndcap
ENCODING 186
SWIDTH 96 0
DWIDTH 7 0
BBX 7 18 0 -18
BITMAP
02
0c
10
20
40
40
80
80
80
80
80
80
40
40
20
10
0c
02
ENDCHAR
STARTCHAR HorizGaugwRightEndca
ENCODING 187
SWIDTH 96 0
DWIDTH 7 0
BBX 7 18 0 -18
BITMAP
80
60
10
08
04
04
02
02
02
02
02
02
04
04
08
10
60
80
ENDCHAR
STARTCHAR HorizGaugeOutlMiddle
ENCODING 188
SWIDTH 96 0
DWIDTH 1 0
BBX 1 18 0 -18
BITMAP
80
00
00
00
00
00
00
00
00
00
00
00
00
00
00
00
00
80
ENDCHAR
STARTCHAR HorizGaugeOutlMiddle
ENCODING 189
SWIDTH 96 0
DWIDTH 2 0
BBX 2 18 0 -18
BITMAP
c0
00
00
00
00
00
00
00
00
00
00
00
00
00
00
00
00
c0
ENDCHAR
STARTCHAR HorizGaugeOutlMiddle
ENCODING 190
SWIDTH 96 0
DWIDTH 4 0
BBX 4 18 0 -18
BITMAP
f0
00
00
00
00
00
00
00
00
00
00
00
00
00
00
00
00
f0
ENDCHAR
STARTCHAR HorizGaugeOutlMiddle
ENCODING 191
SWIDTH 96 0
DWIDTH 8 0
BBX 8 18 0 -18
BITMAP
ff
00
00
00
00
00
00
00
00
00
00
00
00
00
00
00
00
ff
ENDCHAR
STARTCHAR HorizGaugeOutlMiddle
ENCODING 192
SWIDTH 96 0
DWIDTH 16 0
BBX 16 18 0 -18
BITMAP
ffff
0000
0000
0000
0000
0000
0000
0000
0000
0000
0000
0000
0000
0000
0000
0000
0000
ffff
ENDCHAR
STARTCHAR CheckBoxClean
ENCODING 193
SWIDTH 96 0
DWIDTH 26 0
BBX 26 22 0 -22
BITMAP
ffffffc0
ffffffc0
00000fc0
00000fc0
00000fc0
00000fc0
00000fc0
00000fc0
00000fc0
00000fc0
00000fc0
00000fc0
00000fc0
00000fc0
00000fc0
00000fc0
00000fc0
00000fc0
00000fc0
00000fc0
00000fc0
00000fc0
ENDCHAR
STARTCHAR Vert-sb-box-UL
ENCODING 194
SWIDTH 96 0
DWIDTH 20 0
BBX 20 23 0 -23
BITMAP
fffff0
800000
800000
800000
800000
800000
800000
800000
800000
800000
800000
800000
800000
800000
800000
800000
800000
800000
800000
800000
800000
800000
000000
ENDCHAR
STARTCHAR Vert-sb-box-LR
ENCODING 195
SWIDTH 96 0
DWIDTH 20 0
BBX 20 22 0 -22
BITMAP
000000
000010
000010
000010
000010
000010
000010
000010
000010
000010
000010
000010
000010
000010
000010
000010
000010
000010
000010
000010
000010
7ffff0
ENDCHAR
STARTCHAR Dimple.UL
ENCODING 196
SWIDTH 96 0
DWIDTH 11 0
BBX 11 16 0 -16
BITMAP
0000
0000
0000
0000
0000
0000
01e0
0700
0400
0c00
0800
0800
0c00
0400
0700
0180
ENDCHAR
STARTCHAR Dimple.UL
ENCODING 197
SWIDTH 96 0
DWIDTH 14 0
BBX 14 16 0 -16
BITMAP
0000
0000
0000
0000
0000
0000
0000
0038
0008
000c
0004
0004
000c
0008
0038
0060
ENDCHAR
STARTCHAR Dimple.UL
ENCODING 198
SWIDTH 96 0
DWIDTH 13 0
BBX 13 15 0 -15
BITMAP
0000
0000
0000
0000
0000
0000
0000
00c0
03f0
03f0
07f8
07f8
03f0
03f0
00c0
ENDCHAR
STARTCHAR SldierOffset_SpecCha
ENCODING 199
SWIDTH 96 0
DWIDTH 6 0
BBX 6 1 0 -1
BITMAP
fc
ENDCHAR
STARTCHAR Horiz-sb-box-UL
ENCODING 200
SWIDTH 96 0
DWIDTH 21 0
BBX 21 20 0 -20
BITMAP
7ffff8
800000
800000
800000
800000
800000
800000
800000
800000
800000
800000
800000
800000
800000
800000
800000
800000
800000
800000
800000
ENDCHAR
STARTCHAR Horiz-sb-box-LR
ENCODING 201
SWIDTH 96 0
DWIDTH 22 0
BBX 22 20 0 -20
BITMAP
000000
000004
000004
000004
000004
000004
000004
000004
000004
000004
000004
000004
000004
000004
000004
000004
000004
000004
000004
7ffffc
ENDCHAR
STARTCHAR Vertmenumarkback-ul
ENCODING 202
SWIDTH 96 0
DWIDTH 0 0
BBX 13 13 0 -13
BITMAP
0200
0400
0400
0800
0800
1000
1000
2000
2000
4000
4000
8000
8000
ENDCHAR
STARTCHAR VertMenuMarkBack-LR
ENCODING 203
SWIDTH 96 0
DWIDTH 0 0
BBX 13 13 0 -13
BITMAP
0000
0100
0100
0080
0080
0040
0040
0020
0020
0010
0010
0008
7ff8
ENDCHAR
STARTCHAR VertMenuMarkback-fil
ENCODING 204
SWIDTH 96 0
DWIDTH 13 0
BBX 13 13 0 -13
BITMAP
0000
0200
0200
0700
0700
0f80
0f80
1fc0
1fc0
3fe0
3fe0
7ff0
0000
ENDCHAR
STARTCHAR HorizMenuMarkback-ul
ENCODING 205
SWIDTH 96 0
DWIDTH 0 0
BBX 13 7 0 -7
BITMAP
0018
0060
0180
0600
1800
6000
8000
ENDCHAR
STARTCHAR HorizMenuMarkback-lr
ENCODING 206
SWIDTH 96 0
DWIDTH 0 0
BBX 13 13 0 -13
BITMAP
0000
0008
0008
0008
0008
0008
0008
6008
1808
0608
0188
0068
0018
ENDCHAR
STARTCHAR HorizMenuMarkback-fi
ENCODING 207
SWIDTH 96 0
DWIDTH 14 0
BBX 14 13 0 -13
BITMAP
0000
0010
0070
01f0
07f0
1ff0
7ff0
1ff0
07f0
01f0
0070
0010
0000
ENDCHAR
STARTCHAR ActiveCaret
ENCODING 208
SWIDTH 96 0
DWIDTH 9 0
BBX 9 9 0 -6
BITMAP
0800
0800
1c00
1c00
3e00
3e00
7f00
7f00
ff80
ENDCHAR
STARTCHAR InactiveCaret
ENCODING 209
SWIDTH 96 0
DWIDTH 9 0
BBX 9 9 0 -6
BITMAP
0800
1400
2a00
5500
aa80
5500
2a00
1400
0800
ENDCHAR
STARTCHAR Vertgauge-TopEndcap
ENCODING 210
SWIDTH 96 0
DWIDTH 18 0
BBX 18 7 0 -7
BITMAP
03f000
0c0c00
100200
200100
400080
400080
800040
ENDCHAR
STARTCHAR Vertgauge-Botendcap
ENCODING 211
SWIDTH 96 0
DWIDTH 18 0
BBX 18 7 0 -7
BITMAP
800040
400080
400080
200100
100200
0c0c00
03f000
ENDCHAR
STARTCHAR ButtonSpec-UR
ENCODING 212
SWIDTH 96 0
DWIDTH 7 0
BBX 7 7 0 -7
BITMAP
e0
18
04
04
02
02
02
ENDCHAR
STARTCHAR ButtonSpec-LR
ENCODING 213
SWIDTH 96 0
DWIDTH 7 0
BBX 7 7 0 -7
BITMAP
02
02
02
04
04
18
e0
ENDCHAR
STARTCHAR ButtonSpec-2D-LR
ENCODING 214
SWIDTH 96 0
DWIDTH 7 0
BBX 8 8 0 -8
BITMAP
03
03
03
06
06
1c
f8
e0
ENDCHAR
STARTCHAR ButtonSpecialDef-UL
ENCODING 215
SWIDTH 96 0
DWIDTH 7 0
BBX 7 7 0 -7
BITMAP
00
00
00
06
08
10
10
ENDCHAR
STARTCHAR ButtonSpecialDef-LL
ENCODING 216
SWIDTH 96 0
DWIDTH 7 0
BBX 7 4 0 -4
BITMAP
10
10
08
06
ENDCHAR
STARTCHAR ButtonSpecDef-UR
ENCODING 217
SWIDTH 96 0
DWIDTH 4 0
BBX 4 7 0 -7
BITMAP
00
00
00
c0
20
10
10
ENDCHAR
STARTCHAR ButtonSpecDef-LR
ENCODING 218
SWIDTH 96 0
DWIDTH 4 0
BBX 4 4 0 -4
BITMAP
10
10
20
c0
ENDCHAR
STARTCHAR HorizGaugeLeftEnd-Fi
ENCODING 219
SWIDTH 96 0
DWIDTH 7 0
BBX 7 18 0 -18
BITMAP
00
02
0e
1e
3e
3e
7e
7e
7e
7e
7e
7e
3e
3e
1e
0e
02
00
ENDCHAR
STARTCHAR HorizGaugeMiddleFill
ENCODING 220
SWIDTH 96 0
DWIDTH 1 0
BBX 1 18 0 -18
BITMAP
00
80
80
80
80
80
80
80
80
80
80
80
80
80
80
80
80
00
ENDCHAR
STARTCHAR HorizGaugeMiddleFill
ENCODING 221
SWIDTH 96 0
DWIDTH 2 0
BBX 2 18 0 -18
BITMAP
00
c0
c0
c0
c0
c0
c0
c0
c0
c0
c0
c0
c0
c0
c0
c0
c0
00
ENDCHAR
STARTCHAR HorizGaugeMiddleFill
ENCODING 222
SWIDTH 96 0
DWIDTH 4 0
BBX 4 18 0 -18
BITMAP
00
f0
f0
f0
f0
f0
f0
f0
f0
f0
f0
f0
f0
f0
f0
f0
f0
00
ENDCHAR
STARTCHAR HorizGaugeMiddleFill
ENCODING 223
SWIDTH 96 0
DWIDTH 8 0
BBX 8 18 0 -18
BITMAP
00
ff
ff
ff
ff
ff
ff
ff
ff
ff
ff
ff
ff
ff
ff
ff
ff
00
ENDCHAR
STARTCHAR HorizGaugeMiddleFill
ENCODING 224
SWIDTH 96 0
DWIDTH 16 0
BBX 16 18 0 -18
BITMAP
0000
ffff
ffff
ffff
ffff
ffff
ffff
ffff
ffff
ffff
ffff
ffff
ffff
ffff
ffff
ffff
ffff
0000
ENDCHAR
STARTCHAR HorizGaugeRightEndFi
ENCODING 225
SWIDTH 96 0
DWIDTH 7 0
BBX 7 18 0 -18
BITMAP
00
80
e0
f0
f8
f8
fc
fc
fc
fc
fc
fc
f8
f8
f0
e0
80
00
ENDCHAR
STARTCHAR Vertgauge-TopEndcapF
ENCODING 226
SWIDTH 96 0
DWIDTH 18 0
BBX 18 7 0 -7
BITMAP
000000
03f000
0ffc00
1ffe00
3fff00
3fff00
7fff80
ENDCHAR
STARTCHAR VertgaugeBotFill
ENCODING 227
SWIDTH 96 0
DWIDTH 18 0
BBX 18 7 0 -7
BITMAP
7fff80
3fff00
3fff00
1ffe00
0ffc00
03f000
000000
ENDCHAR
STARTCHAR TextScrollLeft
ENCODING 228
SWIDTH 96 0
DWIDTH 18 0
BBX 25 25 0 -25
BITMAP
7ffffe00
80000100
80000180
80000180
80000180
80030180
80070180
800f0180
801f0180
803f0180
807f0180
80ff0180
80ff0180
807f0180
803f0180
801f0180
800f0180
80070180
80030180
80000180
80000180
80000180
80000180
7fffff80
3fffff00
ENDCHAR
STARTCHAR TextScrollRight
ENCODING 229
SWIDTH 96 0
DWIDTH 25 0
BBX 25 25 0 -25
BITMAP
7ffffe00
80000100
80000180
80000180
80000180
80c00180
80e00180
80f00180
80f80180
80fc0180
80fe0180
80ff0180
80ff0180
80fe0180
80fc0180
80f80180
80f00180
80e00180
80c00180
80000180
80000180
80000180
80000180
7fffff80
3fffff00
ENDCHAR
STARTCHAR TextScrollLeftInv
ENCODING 230
SWIDTH 96 0
DWIDTH 18 0
BBX 25 25 0 -25
BITMAP
7ffffe00
80000100
bffffd80
bffffd80
bffffd80
bffcfd80
bff8fd80
bff0fd80
bfe0fd80
bfc0fd80
bf80fd80
bf00fd80
bf00fd80
bf80fd80
bfc0fd80
bfe0fd80
bff0fd80
bff8fd80
bffcfd80
bffffd80
bffffd80
bffffd80
80000180
7fffff80
3fffff00
ENDCHAR
STARTCHAR TextScrollRightInv
ENCODING 231
SWIDTH 96 0
DWIDTH 25 0
BBX 25 25 0 -25
BITMAP
7ffffe00
80000100
bffffd80
bffffd80
bffffd80
bf3ffd80
bf1ffd80
bf0ffd80
bf07fd80
bf03fd80
bf01fd80
bf00fd80
bf00fd80
bf01fd80
bf03fd80
bf07fd80
bf0ffd80
bf1ffd80
bf3ffd80
bffffd80
bffffd80
bffffd80
80000180
7fffff80
3fffff00
ENDCHAR
STARTCHAR NumericScrollNoraml
ENCODING 232
SWIDTH 96 0
DWIDTH 48 0
BBX 48 25 0 -25
BITMAP
7ffffffffffc
800001000002
800001000003
800001000003
800001000003
800001000003
800001000003
800001000003
8018010fffc3
803c010fffc3
807e0107ff83
80ff0103ff03
81ff8101fe03
83ffc100fc03
87ffe1007803
87ffe1003003
800001000003
800001000003
800001000003
800001000003
800001000003
800001000003
800001000003
7fffffffffff
3ffffffffffe
ENDCHAR
STARTCHAR NumericScrollLeftInv
ENCODING 233
SWIDTH 96 0
DWIDTH 48 0
BBX 48 25 0 -25
BITMAP
7ffffffffffc
800001000002
bffffd000003
bffffd000003
bffffd000003
bffffd000003
bffffd000003
bffffd000003
bfe7fd0fffc3
bfc3fd0fffc3
bf81fd07ff83
bf00fd03ff03
be007d01fe03
bc003d00fc03
b8001d007803
b8001d003003
bffffd000003
bffffd000003
bffffd000003
bffffd000003
bffffd000003
bffffd000003
800001000003
7fffffffffff
3ffffffffffe
ENDCHAR
STARTCHAR NumericScrollRightInv
ENCODING 234
SWIDTH 96 0
DWIDTH 48 0
BBX 48 25 0 -25
BITMAP
7ffffffffffc
800001000002
8000017ffffb
8000017ffffb
8000017ffffb
8000017ffffb
8000017ffffb
8000017ffffb
80180170003b
803c0170003b
807e0178007b
80ff017c00fb
81ff817e01fb
83ffc17f03fb
87ffe17f87fb
87ffe17fcffb
8000017ffffb
8000017ffffb
8000017ffffb
8000017ffffb
8000017ffffb
8000017ffffb
800001000003
7fffffffffff
3ffffffffffe
ENDCHAR
ENDFONT
